<svg width="205" height="181" viewBox="0 0 205 181" fill="none" xmlns="http://www.w3.org/2000/svg">
<path d="M85.2978 108.6C82.0202 108.82 79.4897 107.716 78.3628 104.492C77.2425 101.3 78.5907 98.6735 81.3771 96.1419C77.9956 95.0218 75.346 93.3874 75.3199 89.5671C75.2985 86.291 77.1101 84.1959 79.9863 82.8574C80.2884 82.7768 80.5842 82.7062 80.8863 82.6256C82.4403 82.471 84.1547 82.4414 85.2214 83.4492C87.1748 85.2863 87.4407 83.9479 88.6032 82.3618C90.2005 80.1645 90.5547 79.0879 87.8712 77.9745C86.8956 77.5635 86.383 76.114 85.6671 75.1384C85.5774 74.7091 85.4877 74.2798 85.3918 73.8606C85.5218 70.7876 86.5709 68.2162 89.5872 66.8655C92.9337 65.3678 95.5421 66.644 98.0509 69.3316C99.2378 65.733 101.07 63.0533 104.832 62.8212C108.049 62.6338 110.021 64.357 111.173 67.1801C111.236 67.4821 111.29 67.7784 111.353 68.0805C111.087 69.4607 111.271 71.2246 110.479 72.1327C108.349 74.5899 109.887 74.8423 111.59 76.0832C113.639 77.5757 114.205 77.072 115.355 75.1033C116.002 73.9821 117.527 73.3653 118.657 72.5096C118.975 72.4247 119.299 72.3297 119.617 72.2449C122.93 71.9483 125.441 73.0824 126.587 76.2765C127.723 79.4648 126.445 82.1057 123.671 84.617C126.882 85.8416 129.654 87.3425 129.681 91.2047C129.702 94.4807 127.91 96.5875 125.079 97.9811C124.713 98.0787 124.354 98.1662 123.998 98.2697C122.644 98.0601 120.954 98.2848 120.011 97.5462C117.973 95.9497 117.493 96.783 116.302 98.7545C115.148 100.665 114.476 101.508 116.87 102.598C117.964 103.095 118.516 104.693 119.306 105.783C119.383 106.149 119.459 106.515 119.545 106.886C119.579 110.184 118.349 112.812 115.132 114.124C111.936 115.422 109.378 114.384 107.075 111.6C105.697 115.124 103.802 117.946 99.8829 118.069C96.8718 118.159 94.9964 116.494 93.8078 113.899C93.7115 113.438 93.6248 112.983 93.5222 112.532C93.4897 110.207 94.3744 108.175 95.8861 106.412C93.0466 104.19 90.4431 102.736 88.1001 107.189C87.8178 107.726 86.9337 107.954 86.3217 108.318C85.9656 108.422 85.6317 108.511 85.2978 108.6ZM106.102 107.705C105.042 105.52 110.927 104.243 107.018 101.845C105.025 100.623 104.108 101.053 102.913 103.008C100.395 107.105 106.11 105.252 106.102 107.705ZM85.2632 95.1382C87.3114 94.2557 88.9403 100.284 91.3897 94.8541C93.3322 90.5334 88.9578 92.2131 88.2633 90.3757C87.7735 92.3698 86.329 93.41 85.2632 95.1382ZM119.858 85.9706C114.902 83.6594 115.005 83.7495 114.166 84.796C111.268 88.44 114.923 88.8239 116.731 90.767C117.216 88.5477 118.656 87.3659 119.858 85.9706ZM99.0098 73.0372C98.1625 74.9672 97.3762 76.5871 96.0476 78.142C98.0743 77.7185 98.7915 82.2357 101.689 78.5498C105.268 73.9854 98.9158 75.4796 99.0098 73.0372ZM100.886 89.0459C100.315 90.1299 98.6346 91.166 100.927 91.9726C102.087 92.3847 102.935 93.9543 104.159 91.6135C104.993 90.0227 105.287 89.3818 103.555 88.4844C102.255 87.8074 101.443 87.1345 100.886 89.0459Z" fill="#FFE8C8"/>
<path d="M110.8 68.6442C110.737 68.3421 110.683 68.0459 110.62 67.7438C110.742 67.4846 110.941 67.2302 110.986 66.9663C111.508 63.5202 113.079 60.9187 116.747 60.3935C119.729 59.967 121.956 61.3033 122.93 64.1153C124.13 67.5638 122.485 70.1345 119.627 72.1643C119.409 72.3233 119.258 72.6069 119.078 72.8311C118.76 72.9159 118.436 73.0108 118.118 73.0957C115.019 72.6467 112.59 71.1461 110.8 68.6442Z" fill="#FFE8C8"/>
<path d="M120.111 107.448C120.035 107.082 119.958 106.716 119.872 106.345C120.41 103.214 121.988 100.728 124.563 98.8325C124.929 98.7349 125.288 98.6474 125.644 98.544C126.58 98.7643 127.534 98.9126 128.432 99.2352C130.974 100.152 132.557 101.903 132.541 104.794C132.522 107.435 131.258 109.459 128.885 110.671C126.283 111.995 123.967 111.396 121.991 109.573C121.291 108.954 120.733 108.171 120.111 107.448Z" fill="#FFE8C8"/>
<path d="M94.0787 111.981C94.1751 112.442 94.2618 112.897 94.3645 113.348C94.1536 114.025 93.9365 114.713 93.7159 115.384C92.791 118.266 91.0169 120.259 87.9403 120.517C85.1185 120.75 83.042 119.449 82.0409 116.829C80.9582 113.979 82.0177 111.539 84.2661 109.488C84.7942 109.003 85.3415 108.529 85.8696 108.044C86.2035 107.955 86.5437 107.856 86.8775 107.767C89.896 108.153 92.2609 109.629 94.0787 111.981Z" fill="#FFE8C8"/>
<path d="M80.3242 82.0746C80.0221 82.1552 79.7263 82.2257 79.4242 82.3063C75.9722 81.532 72.5734 80.6511 72.4612 76.1406C72.3908 73.5157 73.6384 71.4539 76.0279 70.2373C80.1121 68.1741 82.5333 70.6418 84.851 73.2967C84.9407 73.7259 85.0305 74.1552 85.1265 74.5743C84.4744 77.6774 82.8159 80.1425 80.3242 82.0746Z" fill="#FFE8C8"/>
<path d="M121.581 124.028C119.91 126.832 115.967 127.884 113.355 126.231C110.878 124.659 110.097 120.965 111.696 118.298C113.374 115.484 117.301 114.436 119.922 116.095C122.384 117.67 123.164 121.365 121.581 124.028Z" fill="#FFE8C8"/>
<path d="M65.5294 96.7618C62.8962 95.2068 62.1069 91.2714 63.8974 88.5948C65.6028 86.0333 69.2663 85.0895 71.7746 86.5688C74.4079 88.1238 75.1971 92.0592 73.4066 94.7357C71.7108 97.3031 68.0377 98.2411 65.5294 96.7618Z" fill="#FFE8C8"/>
<path d="M76.7047 107.336C75.1001 110.139 71.1862 111.25 68.5525 109.653C66.063 108.144 65.2378 104.478 66.7606 101.806C68.3652 99.0026 72.2791 97.8913 74.9128 99.4882C77.4119 101.004 78.2434 104.659 76.7047 107.336Z" fill="#FFE8C8"/>
<path d="M132.84 94.1167C130.294 92.337 129.769 88.3398 131.742 85.774C133.649 83.2931 137.378 82.5835 139.748 84.2424C142.293 86.0222 142.812 90.0295 140.846 92.5852C138.948 95.0719 135.219 95.7815 132.84 94.1167Z" fill="#FFE8C8"/>
<path d="M91.3214 54.5066C93.8448 55.8979 94.8097 59.5093 93.3768 62.2499C91.8969 65.0869 88.0227 66.3471 85.32 64.861C82.6461 63.3924 81.7552 59.4926 83.4813 56.7493C85.1194 54.1471 88.7691 53.0978 91.3214 54.5066Z" fill="#FFE8C8"/>
<path d="M138.074 79.2495C136.335 82.0129 132.382 82.9753 129.84 81.2533C127.406 79.6113 126.718 75.9177 128.369 73.2953C130.107 70.5319 134.061 69.5695 136.603 71.2914C139.036 72.9334 139.718 76.6371 138.074 79.2495Z" fill="#FFE8C8"/>
<path d="M104.424 51.5451C107.042 53.1463 107.774 57.0887 105.945 59.742C104.195 62.2903 100.512 63.1806 98.0445 61.6568C95.4267 60.0556 94.6948 56.1132 96.5141 53.4541C98.2676 50.9217 101.957 50.0213 104.424 51.5451Z" fill="#FFE8C8"/>
<path d="M108.626 127.134C106.936 129.926 103.002 130.942 100.412 129.275C97.9477 127.683 97.202 123.997 98.8143 121.351C100.505 118.558 104.429 117.536 107.022 119.22C109.487 120.811 110.229 124.482 108.626 127.134Z" fill="#FFE8C8"/>
<path d="M70.4902 114.459C72.6827 111.818 75.2021 111.221 77.9517 112.93C80.5763 114.563 81.037 118.092 78.965 120.667C76.792 123.362 74.1499 123.773 71.5361 121.911C68.8708 120.003 68.7938 117.346 70.4902 114.459Z" fill="#FFE8C8"/>
<path d="M126.569 122.836C123.977 120.917 123.309 118.444 124.998 115.442C126.608 112.587 130.144 111.678 132.671 113.487C135.306 115.377 135.82 118.034 133.952 120.899C132.081 123.79 129.459 124.255 126.569 122.836Z" fill="#FFE8C8"/>
<path d="M70.0939 81.4199C68.084 84.172 65.5834 85.0993 62.7447 83.4058C59.9348 81.7297 59.3319 79.0872 61.1296 76.1231C62.9307 73.1749 65.5795 72.4346 68.4082 74.0805C71.2595 75.7539 71.6295 78.3663 70.0939 81.4199Z" fill="#FFE8C8"/>
<path d="M95.3833 130.025C93.4019 132.753 90.8824 133.71 88.0381 132.111C85.229 130.518 84.5817 127.904 86.1587 124.848C87.6635 121.928 91.1866 120.913 93.7768 122.622C96.4953 124.424 96.9093 126.966 95.3833 130.025Z" fill="#FFE8C8"/>
<path d="M136.335 106.807C133.765 104.833 133.151 102.336 134.888 99.3638C136.546 96.5382 140.102 95.6819 142.591 97.5521C145.189 99.5023 145.645 102.167 143.745 104.998C141.809 107.864 139.18 108.255 136.335 106.807Z" fill="#FFE8C8"/>
<path d="M78.5266 58.1841C81.0552 60.2032 81.6476 62.7556 79.7124 65.6216C77.7709 68.4977 75.0702 69.0672 72.3556 67.2823C69.6122 65.48 69.2065 62.777 71.1162 59.9094C73.051 57.0016 75.674 56.6626 78.5266 58.1841Z" fill="#FFE8C8"/>
<path d="M118.734 56.1608C116.518 59.0518 113.976 59.898 111.191 58.1398C108.415 56.3875 107.895 53.6977 109.769 50.7802C111.644 47.8628 114.335 47.2036 117.12 48.9199C119.953 50.6654 120.154 53.3144 118.734 56.1608Z" fill="#FFE8C8"/>
<path d="M134.622 66.1535C132.57 68.8664 130.09 69.6538 127.24 68.0641C124.514 66.5503 123.86 63.0571 125.822 60.4014C127.855 57.635 130.489 57.0246 133.197 58.778C135.934 60.5489 136.206 63.1709 134.622 66.1535Z" fill="#FFE8C8"/>
<path d="M56.2529 112.03C53.9846 110.252 53.1933 107.912 54.745 105.3C56.3001 102.703 58.8813 101.964 61.3599 103.384C63.8482 104.809 64.4313 107.398 62.8922 109.99C61.3597 112.614 58.881 113.041 56.2529 112.03Z" fill="#FFE8C8"/>
<path d="M75.2588 134.764C73.0353 133 72.2343 130.654 73.7923 128.032C75.3536 125.425 77.9603 124.687 80.4452 126.097C82.9431 127.528 83.5295 130.133 81.9937 132.741C80.4424 135.395 77.9575 135.832 75.2588 134.764Z" fill="#FFE8C8"/>
<path d="M145.436 110.877C147.385 112.573 148.019 114.845 146.551 117.495C145.214 119.891 141.502 120.763 139.525 119.134C137.346 117.341 136.917 114.929 138.491 112.344C139.824 110.125 143.196 109.436 145.436 110.877Z" fill="#FFE8C8"/>
<path d="M66.6256 68.2867C64.5775 70.6965 62.2003 71.5322 59.7929 69.9753C57.4048 68.43 56.9043 65.8355 58.5593 63.3122C60.208 60.7991 62.8037 60.1653 65.214 61.6963C67.6436 63.2389 67.7799 65.7375 66.6256 68.2867Z" fill="#FFE8C8"/>
<path d="M129.689 46.1098C131.909 47.8586 132.7 50.1984 131.129 52.7993C129.574 55.3959 126.983 56.1291 124.511 54.6993C122.029 53.2637 121.455 50.6811 122.994 48.0888C124.546 45.4762 127.015 45.044 129.689 46.1098Z" fill="#FFE8C8"/>
<path d="M102.288 46.106C100.453 48.4506 98.1183 49.3674 95.6293 47.9414C93.1561 46.5112 92.5698 43.948 94.1031 41.3649C95.6427 38.7718 98.2185 38.0427 100.688 39.457C103.184 40.8729 103.489 43.3348 102.288 46.106Z" fill="#FFE8C8"/>
<path d="M110.878 139.738C108.883 142.042 106.487 142.908 104.061 141.339C101.653 139.782 101.146 137.156 102.814 134.613C104.485 132.085 107.109 131.427 109.532 132.98C111.971 134.528 112.178 137.041 110.878 139.738Z" fill="#FFE8C8"/>
<path d="M148.769 68.8336C150.992 70.5983 151.793 72.944 150.235 75.5665C148.674 78.1732 146.067 78.9107 143.579 77.4851C141.081 76.0537 140.501 73.4394 142.046 70.8369C143.585 68.2027 146.07 67.7663 148.769 68.8336Z" fill="#FFE8C8"/>
<path d="M58.3882 90.4302C60.6642 92.3655 61.3601 94.7308 59.6898 97.2574C58.0416 99.7698 55.4501 100.419 53.0406 98.8887C50.647 97.3541 50.1563 94.7663 51.7915 92.2322C53.4552 89.6738 55.9224 89.3931 58.3882 90.4302Z" fill="#FFE8C8"/>
<path d="M146.573 90.4663C144.349 88.7016 143.554 86.3459 145.122 83.7291C146.683 81.1224 149.29 80.385 151.788 81.8164C154.286 83.2478 154.856 85.8563 153.321 88.4645C151.75 91.1072 149.255 91.5379 146.573 90.4663Z" fill="#FFE8C8"/>
<path d="M89.4152 49.1236C87.5329 51.5228 85.1916 52.4496 82.7088 51.0136C80.2356 49.5834 79.6556 47.0101 81.189 44.427C82.7286 41.8339 85.298 41.1148 87.7741 42.519C90.2887 43.9466 90.5555 46.4271 89.4152 49.1236Z" fill="#FFE8C8"/>
<path d="M123.8 136.681C121.84 138.95 119.548 139.712 117.021 138.347C114.725 137.121 114.081 133.398 115.806 131.293C117.709 128.989 120.202 128.307 122.562 129.918C124.906 131.534 125.106 134.016 123.8 136.681Z" fill="#FFE8C8"/>
<path d="M154.862 95.157C157.092 96.8699 157.537 99.0419 155.856 101.479C154.147 103.941 151.846 104.295 149.576 102.71C147.444 101.223 147.123 99.0429 148.61 96.7243C150.217 94.2144 152.416 93.8543 154.862 95.157Z" fill="#FFE8C8"/>
<path d="M130.243 135.025C127.896 133.268 127.342 131.142 128.933 128.678C130.524 126.214 132.766 125.658 135.112 127.122C137.467 128.592 137.868 130.834 136.322 133.311C134.728 135.843 132.528 136.119 130.243 135.025Z" fill="#FFE8C8"/>
<path d="M50.0852 85.634C47.9067 83.9243 47.4739 81.7741 49.1613 79.3686C50.8675 76.933 53.14 76.6036 55.3844 78.1866C57.5005 79.678 57.7836 81.8346 56.2958 84.1113C54.6794 86.6152 52.5056 86.9351 50.0852 85.634Z" fill="#FFE8C8"/>
<path d="M145.49 56.3693C147.735 57.9942 148.304 60.1164 146.685 62.6045C145.049 65.0969 142.803 65.5535 140.473 64.0436C138.297 62.6269 137.893 60.4941 139.307 58.1448C140.847 55.5942 143.006 55.127 145.49 56.3693Z" fill="#FFE8C8"/>
<path d="M70.1446 53.896C67.7401 52.2298 67.0944 50.1447 68.6661 47.6275C70.2412 45.1261 72.4513 44.5784 74.8159 46.0539C77.0137 47.4144 77.4684 49.5085 76.1185 51.8826C74.6462 54.474 72.4989 54.9211 70.1446 53.896Z" fill="#FFE8C8"/>
<path d="M97.6612 142.52C95.7223 145.01 93.5373 145.559 91.2414 143.973C88.9071 142.363 88.7053 140.033 90.406 137.649C92.0091 135.4 94.1827 134.996 96.3843 136.373C98.8041 137.909 98.9156 140.129 97.6612 142.52Z" fill="#FFE8C8"/>
<path d="M59.5787 124.565C57.1895 122.81 56.658 120.67 58.3065 118.199C59.9614 115.719 62.2139 115.294 64.5311 116.824C66.6945 118.261 67.0571 120.396 65.6337 122.739C64.069 125.33 61.8856 125.644 59.5787 124.565Z" fill="#FFE8C8"/>
<path d="M114.695 43.0282C112.885 45.3325 110.735 45.8893 108.449 44.3085C106.134 42.7103 105.932 40.4223 107.621 38.0581C109.211 35.8292 111.359 35.424 113.529 36.8092C115.917 38.3125 116.114 40.5009 114.695 43.0282Z" fill="#FFE8C8"/>
<path d="M143.287 131.458C141.424 129.732 140.875 127.705 142.403 125.661C143.883 123.672 146.084 123.202 148.022 124.682C149.757 125.998 150.097 128.064 148.791 130.007C147.362 132.125 145.306 132.321 143.287 131.458Z" fill="#FFE8C8"/>
<path d="M47.4672 72.3499C45.6098 70.9321 45.0546 68.9991 46.4543 66.8634C47.725 64.9132 49.7377 64.3846 51.6373 65.5225C53.7003 66.7596 54.1294 68.8521 52.7393 70.9936C51.4653 72.928 49.5498 73.2796 47.4672 72.3499Z" fill="#FFE8C8"/>
<path d="M142.033 43.8544C143.768 45.0867 144.484 46.8675 143.422 48.9719C142.25 51.2734 140.15 51.9848 138.027 50.8644C135.886 49.7323 135.411 47.5847 136.734 45.4024C137.95 43.3913 139.881 42.9936 142.033 43.8544Z" fill="#FFE8C8"/>
<path d="M158.817 113.86C157.323 115.828 155.36 116.637 153.278 115.43C151.205 114.229 150.769 112.062 152.079 109.899C153.293 107.914 155.353 107.33 157.29 108.324C159.435 109.431 159.756 111.486 158.817 113.86Z" fill="#FFE8C8"/>
<path d="M61.4662 49.4508C63.188 50.6613 63.8978 52.4105 62.8418 54.5048C61.6823 56.7862 59.6074 57.4992 57.4945 56.3846C55.3783 55.254 54.8885 53.1525 56.2114 50.9702C57.4307 48.9749 59.3266 48.5698 61.4662 49.4508Z" fill="#FFE8C8"/>
<path d="M68.3734 135.432C66.8824 137.374 64.9224 138.158 62.8781 136.932C60.8435 135.712 60.4139 133.577 61.7471 131.442C62.9733 129.478 65.015 128.925 66.9299 129.933C69.0433 131.048 69.3668 133.077 68.3734 135.432Z" fill="#FFE8C8"/>
<path d="M127.321 39.4724C125.969 41.3186 124.14 42.0837 122.151 41.0865C119.975 39.9886 119.399 37.8761 120.677 35.68C121.952 33.4681 124.108 32.9012 126.178 34.1703C128.059 35.3387 128.315 37.2849 127.321 39.4724Z" fill="#FFE8C8"/>
<path d="M78.7942 146.815C76.965 145.331 76.3521 143.363 77.7392 141.248C79.1138 139.152 81.2765 138.659 83.2699 139.965C85.0806 141.16 85.4998 143.205 84.3186 145.182C83.0213 147.365 81.0009 147.737 78.7942 146.815Z" fill="#FFE8C8"/>
<path d="M120.797 150.096C118.966 148.764 118.569 147.024 119.95 145.002C121.203 143.166 122.943 142.777 124.718 143.881C126.695 145.108 126.978 146.945 125.619 148.953C124.373 150.821 122.68 151.071 120.797 150.096Z" fill="#FFE8C8"/>
<path d="M160.709 66.8184C162.735 68.1996 163.253 69.874 161.932 71.9466C160.744 73.8078 159.049 74.2935 157.236 73.2498C155.244 72.1113 154.856 70.3351 156.129 68.2752C157.327 66.3779 158.995 66.126 160.709 66.8184Z" fill="#FFE8C8"/>
<path d="M111.874 146.959C113.58 148.216 114.053 149.835 112.894 151.756C111.634 153.837 109.834 154.343 107.867 153.122C106.082 152.012 105.717 150.305 106.851 148.383C108.114 146.275 109.876 145.914 111.874 146.959Z" fill="#FFE8C8"/>
<path d="M163.82 79.7211C165.846 81.1023 166.367 82.7926 165.04 84.8753C163.845 86.7466 162.144 87.2423 160.312 86.187C158.311 85.0426 157.91 83.2447 159.205 81.1705C160.393 79.2674 162.073 78.9954 163.82 79.7211Z" fill="#FFE8C8"/>
<path d="M97.9741 32.6268C96.6441 34.375 95.0136 34.9275 93.2127 33.8216C91.2292 32.6049 90.9582 30.7467 92.3534 28.7881C93.6287 26.979 95.3889 26.6857 97.1266 27.8504C98.8834 29.0268 99.0255 30.7096 97.9741 32.6268Z" fill="#FFE8C8"/>
<path d="M44.8742 94.793C46.5265 96.0725 46.9516 97.7046 45.7283 99.6002C44.3758 101.681 42.5177 102.026 40.6514 100.686C38.9263 99.4597 38.7707 97.6718 40.0425 95.8471C41.3523 94.0039 43.0363 93.7896 44.8742 94.793Z" fill="#FFE8C8"/>
<path d="M158.813 58.7887C157.613 60.3933 156.037 61.0487 154.366 60.16C152.505 59.1707 152.097 57.3406 153.293 55.4689C154.368 53.7886 156.102 53.368 157.739 54.333C159.389 55.3196 159.566 56.968 158.813 58.7887Z" fill="#FFE8C8"/>
<path d="M110.75 29.3841C109.488 30.896 107.909 31.5355 106.297 30.5721C104.522 29.5096 104.153 27.6608 105.415 25.8718C106.537 24.2884 108.28 23.8736 109.861 24.9293C111.432 25.9791 111.564 27.6142 110.75 29.3841Z" fill="#FFE8C8"/>
<path d="M47.8367 107.634C49.5426 108.849 50.0568 110.465 48.8911 112.396C47.6185 114.498 45.7836 114.954 43.8541 113.673C42.0817 112.501 41.8403 110.744 43.0544 108.884C44.2874 106.995 45.9548 106.701 47.8367 107.634Z" fill="#FFE8C8"/>
<path d="M133.835 146.859C132.272 145.564 131.773 143.902 133.051 142.067C134.188 140.438 135.902 140.006 137.504 141.005C139.272 142.119 139.616 143.924 138.364 145.76C137.224 147.415 135.585 147.643 133.835 146.859Z" fill="#FFE8C8"/>
<path d="M41.3648 81.8719C42.9592 83.1163 43.527 84.6682 42.5507 86.3803C41.4709 88.2794 39.6303 88.7873 37.8873 87.6748C36.3205 86.6832 36.0156 84.9437 37.0558 83.2565C38.1212 81.529 39.7706 81.391 41.3648 81.8719Z" fill="#FFE8C8"/>
<path d="M80.3456 37.0204C78.533 35.6159 78.0698 34.0025 79.2709 32.1212C80.5915 30.0486 82.4366 29.6823 84.3058 30.9961C86.0179 32.2009 86.2019 33.9643 84.9557 35.7905C83.6844 37.6569 81.9964 37.7716 80.3456 37.0204Z" fill="#FFE8C8"/>
<path d="M163.198 98.7704C161.768 97.3898 161.307 95.7085 162.678 93.9582C163.869 92.432 165.609 92.0433 167.139 93.1373C168.8 94.3388 169.08 96.1605 167.741 97.9024C166.54 99.4646 164.894 99.6604 163.198 98.7704Z" fill="#FFE8C8"/>
<path d="M51.7084 125.453C50.3888 126.93 48.8126 127.502 47.191 126.49C45.579 125.485 45.1944 123.766 46.2413 122.069C47.4076 120.179 49.2525 119.729 50.9714 120.924C52.5105 121.982 52.6207 123.674 51.7084 125.453Z" fill="#FFE8C8"/>
<path d="M98.6304 150.059C100.328 151.477 100.855 153.115 99.6189 154.947C98.5144 156.568 96.8039 157.016 95.2053 156.032C93.4434 154.95 93.103 153.161 94.3044 151.322C95.4023 149.67 97.0583 149.564 98.6304 150.059Z" fill="#FFE8C8"/>
<path d="M71.955 38.6768C70.6131 40.168 69.0147 40.7539 67.4211 39.6765C65.8501 38.6268 65.5258 36.875 66.6463 35.2079C67.7701 33.5566 69.5101 33.126 71.1066 34.1774C72.6872 35.233 72.81 36.9042 71.955 38.6768Z" fill="#FFE8C8"/>
<path d="M160.95 126.267C159.749 127.83 158.334 128.291 156.847 127.361C155.36 126.432 155.051 124.911 156.051 123.352C157.051 121.793 158.565 121.405 160.058 122.325C161.561 123.25 161.701 124.723 160.95 126.267Z" fill="#FFE8C8"/>
<path d="M86.3703 157.235C85.3758 158.701 84.2198 159.194 82.9332 158.58C81.461 157.882 81.0258 156.563 81.9084 155.043C82.7846 153.534 84.1365 153.215 85.5273 154.086C86.7739 154.87 86.7877 156.1 86.3703 157.235Z" fill="#FFE8C8"/>
<path d="M65.6363 144.983C66.9579 143.355 68.3831 143.025 69.8009 144.065C71.2476 145.123 71.3183 146.665 70.1961 148.123C69.2 149.421 67.8125 149.69 66.4726 148.822C64.9597 147.85 64.9123 146.418 65.6363 144.983Z" fill="#FFE8C8"/>
<path d="M54.2043 137.83C53.1827 139.127 51.9401 139.567 50.5839 138.662C49.42 137.873 49.1733 136.612 49.9593 135.353C50.8586 133.913 52.2073 133.579 53.5505 134.462C54.7366 135.237 54.8333 136.462 54.2043 137.83Z" fill="#FFE8C8"/>
<path d="M122.99 25.9137C122.04 27.0735 120.862 27.539 119.635 26.8088C118.234 25.9737 117.974 24.5659 118.995 23.1856C119.864 22.005 121.172 21.715 122.362 22.5475C123.529 23.3525 123.632 24.5673 122.99 25.9137Z" fill="#FFE8C8"/>
<path d="M139.235 35.8872C137.936 37.5431 136.503 37.7574 135.088 36.6912C133.811 35.7225 133.684 34.3128 134.664 32.9351C135.798 31.3317 137.285 31.1783 138.7 32.2445C139.999 33.1989 139.991 34.5689 139.235 35.8872Z" fill="#FFE8C8"/>
<path d="M155.088 45.5134C153.857 46.9331 152.557 47.2969 151.286 46.3181C150.204 45.4818 149.983 44.1811 150.862 42.9645C151.848 41.5767 153.213 41.3215 154.496 42.2802C155.619 43.1138 155.589 44.3727 155.088 45.5134Z" fill="#FFE8C8"/>
<path d="M58.4408 41.2777C57.5106 42.4492 56.3257 42.9248 55.1019 42.2105C53.6892 41.3955 53.4222 39.9979 54.4205 38.59C55.2772 37.3878 56.5784 37.1078 57.7774 37.9042C58.9639 38.7208 59.0668 39.9356 58.4408 41.2777Z" fill="#FFE8C8"/>
<path d="M170.592 109.927C169.49 111.48 168.269 111.907 166.866 111.056C165.645 110.315 165.329 109.124 166.019 107.807C166.79 106.317 168.057 105.794 169.53 106.534C171.006 107.29 171.125 108.585 170.592 109.927Z" fill="#FFE8C8"/>
<path d="M48.8068 57.4136C47.7486 58.8961 46.3911 59.3086 44.8909 58.3156C43.5574 57.4376 43.3133 56.1095 44.1966 54.6736C45.1993 53.0464 46.6148 52.7107 48.1214 53.6936C49.4708 54.5674 49.6254 55.8691 48.8068 57.4136Z" fill="#FFE8C8"/>
<path d="M38.7313 73.3247C37.7689 74.4628 36.5807 74.9225 35.3724 74.1621C33.9912 73.2968 33.7463 71.8848 34.7864 70.5161C35.6689 69.3574 36.9957 69.079 38.1633 69.9258C39.3116 70.7609 39.4179 71.9916 38.7313 73.3247Z" fill="#FFE8C8"/>
<path d="M150.798 142.089C149.824 143.457 148.598 143.893 147.194 143.042C145.974 142.302 145.657 141.111 146.347 139.793C147.119 138.304 148.392 137.771 149.858 138.521C151.299 139.27 151.54 140.54 150.798 142.089Z" fill="#FFE8C8"/>
</svg>
